<svg width="28" height="28" viewBox="0 0 28 28" fill="none" xmlns="http://www.w3.org/2000/svg">
<path d="M13.9997 18.6673C15.2374 18.6673 16.4243 18.1757 17.2995 17.3005C18.1747 16.4253 18.6663 15.2383 18.6663 14.0007C18.6663 12.763 18.1747 11.576 17.2995 10.7008C16.4243 9.82565 15.2374 9.33398 13.9997 9.33398C12.762 9.33398 11.575 9.82565 10.6998 10.7008C9.82467 11.576 9.33301 12.763 9.33301 14.0007C9.33301 15.2383 9.82467 16.4253 10.6998 17.3005C11.575 18.1757 12.762 18.6673 13.9997 18.6673Z" stroke="white" stroke-width="1.75" stroke-linecap="round" stroke-linejoin="round"/>
<path d="M3.5 18.6667V9.33333C3.5 7.78624 4.11458 6.30251 5.20854 5.20854C6.30251 4.11458 7.78624 3.5 9.33333 3.5H18.6667C20.2138 3.5 21.6975 4.11458 22.7915 5.20854C23.8854 6.30251 24.5 7.78624 24.5 9.33333V18.6667C24.5 20.2138 23.8854 21.6975 22.7915 22.7915C21.6975 23.8854 20.2138 24.5 18.6667 24.5H9.33333C7.78624 24.5 6.30251 23.8854 5.20854 22.7915C4.11458 21.6975 3.5 20.2138 3.5 18.6667Z" stroke="white" stroke-width="1.75"/>
<path d="M20.417 7.59486L20.4287 7.58203" stroke="white" stroke-width="1.75" stroke-linecap="round" stroke-linejoin="round"/>
</svg>
